<svg width="0" height="0" fill="none" style="visibility: hidden; position: absolute;" aria-hidden="true">
    <symbol id="up-icon" viewBox="0 0 24 24" fill="none" xmlns="http://www.w3.org/2000/svg">
        <path d="M5 15L10 9.84985C10.2563 9.57616 10.566 9.35814 10.9101 9.20898C11.2541 9.05983 11.625 8.98291 12 8.98291C12.375 8.98291 12.7459 9.05983 13.0899 9.20898C13.434 9.35814 13.7437 9.57616 14 9.84985L19 15"  stroke-width="1.5" stroke-linecap="round" stroke-linejoin="round"/>
    </symbol>

    <symbol id="loader-icon" viewBox="0 0 24 24" fill="none" xmlns="http://www.w3.org/2000/svg">
        <path d="M12 3V6M12 18V21M6 12H3M21 12H18M5.63672 5.63672L7.75977 7.75977M16.2422 16.2422L18.3633 18.3633M18.3652 5.63477L16.2441 7.75586M7.75781 16.2422L5.63477 18.3652" stroke-width="2" stroke-linecap="round" stroke-linejoin="round"/>
    </symbol>
</svg>